<?xml version="1.0"?>
<svg xmlns="http://www.w3.org/2000/svg" xmlns:xlink="http://www.w3.org/1999/xlink" xmlns:svgjs="http://svgjs.com/svgjs" version="1.1" width="512" height="512" x="0" y="0" viewBox="0 0 300 300" style="enable-background:new 0 0 512 512" xml:space="preserve" class=""><g><g xmlns="http://www.w3.org/2000/svg"><path d="m48.232 230c-6.617 0-12 5.383-12 12s5.383 12 12 12 12-5.383 12-12-5.382-12-12-12zm0 16c-2.207 0-4-1.793-4-4s1.793-4 4-4 4 1.793 4 4-1.793 4-4 4z" fill="#343a40" data-original="#000000" style=""/><path d="m150.405 208.504c2.501.005 4.533-2.02 4.538-4.521s-2.02-4.533-4.521-4.537c-2.501-.005-4.533 2.02-4.538 4.521s2.019 4.532 4.521 4.537z" fill="#343a40" data-original="#000000" style=""/><path d="m258.061 59.894 4.531-4.515c1.562-1.559 1.57-4.09.008-5.656-1.559-1.566-4.09-1.57-5.656-.008l-4.528 4.512-4.511-4.528c-1.559-1.566-4.09-1.57-5.656-.008-1.562 1.559-1.57 4.09-.008 5.656l4.509 4.526-4.529 4.513c-1.562 1.559-1.57 4.09-.008 5.656.781.785 1.805 1.176 2.832 1.176 1.02 0 2.043-.391 2.824-1.168l4.526-4.51 4.513 4.53c.781.785 1.805 1.176 2.832 1.176 1.02 0 2.043-.387 2.824-1.168 1.562-1.559 1.57-4.09.008-5.656z" fill="#343a40" data-original="#000000" style=""/><path d="m166.232 26c-34.188 0-62 27.812-62 62v48c0 4.258.438 8.516 1.301 12.652.078.38.264.7.436 1.026-1.095 4.606-1.736 9.385-1.736 14.321v48c0 34.188 27.812 62 62 62s62-27.812 62-62v-48c0-4.684-.531-9.367-1.574-13.918-.012-.053-.05-.09-.064-.142 1.037-4.488 1.639-9.141 1.639-13.94v-47.999c-.002-34.188-27.814-62-62.002-62zm54 186c0 29.777-24.223 54-54 54s-54-24.223-54-54v-48c0-29.777 24.223-54 54-54 14.336 0 27.805 5.584 38 15.705v10.295c0 .672-.066 1.327-.101 1.99-8.482-12.257-22.679-19.99-37.899-19.99-25.363 0-46 20.637-46 46v48c0 25.363 20.637 46 46 46s46-20.637 46-46v-34c0-.168-.075-.311-.095-.473 3.086-3.409 5.819-7.135 8.095-11.166zm-16-96.893c-10.839-8.466-24.049-13.107-38-13.107-14.324 0-27.491 4.929-38 13.116v-27.116c0-20.953 17.047-38 38-38s38 17.047 38 38zm-76 69.789c10.839 8.465 24.058 13.104 38 13.104 14.324 0 27.491-4.929 38-13.116v27.116c0 20.953-17.047 38-38 38s-38-17.047-38-38zm92-48.896c0 29.777-24.223 54-54 54-14.327 0-27.809-5.576-38-15.688v-10.312c0-20.953 17.047-38 38-38 15.428 0 29.58 9.623 35.307 23.965-5.58 14.056-19.287 24.035-35.307 24.035-8.707 0-17.219-3.031-23.973-8.539-1.715-1.398-4.227-1.133-5.629.574-1.395 1.711-1.137 4.23.574 5.629 8.176 6.664 18.484 10.336 29.027 10.336 25.363 0 46-20.637 46-46v-48c0-25.363-20.637-46-46-46s-46 20.637-46 46v34c0 .168.075.311.095.473-3.086 3.409-5.819 7.135-8.095 11.166v-45.639c0-29.777 24.223-54 54-54s54 24.223 54 54v48z" fill="#343a40" data-original="#000000" style=""/><path d="m92.232 146h-16c-2.211 0-4 1.789-4 4s1.789 4 4 4h16c2.211 0 4-1.789 4-4s-1.789-4-4-4z" fill="#343a40" data-original="#000000" style=""/><path d="m89.061 129.172c-1.562-1.562-4.094-1.562-5.656 0s-1.562 4.094 0 5.656l6 6c.781.781 1.805 1.172 2.828 1.172s2.047-.391 2.828-1.172c1.562-1.562 1.562-4.094 0-5.656z" fill="#343a40" data-original="#000000" style=""/><path d="m89.404 159.172-6 6c-1.562 1.562-1.562 4.094 0 5.656.781.781 1.805 1.172 2.828 1.172s2.047-.391 2.828-1.172l6-6c1.562-1.562 1.562-4.094 0-5.656s-4.093-1.563-5.656 0z" fill="#343a40" data-original="#000000" style=""/></g></g></svg>
