<svg xmlns="http://www.w3.org/2000/svg" viewBox="0 0 2796.13 1607.57"><defs><style>.cls-1{opacity:0.5;}.cls-2{fill:#627432;}.cls-3,.cls-4{fill:#231f20;}.cls-4{font-size:24px;}.cls-13,.cls-4{font-family:PermanentMarker-Regular, Permanent Marker;}.cls-5{letter-spacing:-0.02em;}.cls-6{letter-spacing:-0.01em;}.cls-7{letter-spacing:-0.03em;}.cls-8{fill:#8c6e34;}.cls-9{letter-spacing:-0.05em;}.cls-10{fill:#f2e3b6;}.cls-11,.cls-24,.cls-26{fill:none;stroke-width:4px;}.cls-11{stroke:#231f20;}.cls-11,.cls-24{stroke-miterlimit:10;}.cls-12,.cls-13{fill:#f07622;}.cls-13{font-size:60px;}.cls-14{letter-spacing:-0.01em;}.cls-15{letter-spacing:-0.02em;}.cls-16{letter-spacing:-0.01em;}.cls-17{letter-spacing:0em;}.cls-18{letter-spacing:-0.03em;}.cls-19{letter-spacing:-0.03em;}.cls-20{letter-spacing:-0.04em;}.cls-21{letter-spacing:-0.01em;}.cls-22{letter-spacing:0em;}.cls-23{letter-spacing:-0.02em;}.cls-24,.cls-26{stroke:#f07622;stroke-linecap:round;}.cls-25{letter-spacing:-0.02em;}.cls-26{stroke-linejoin:round;}</style></defs><g id="Layer_2" data-name="Layer 2"><g id="Layer_1-2" data-name="Layer 1"><g class="cls-1"><rect class="cls-2" x="407.77" y="280.15" width="190.67" height="107.25"/><path class="cls-2" d="M598.44,387.4l-94.9,1.05-47.82.41q-23.94.21-48,.3A1.76,1.76,0,0,1,406,387.4h0l-.17-53.63-.07-53.62a2,2,0,0,1,2-2h0l47.67.06,47.66.12c15.89.07,31.78.09,47.67.23l47.67.36h0a1.22,1.22,0,0,1,1.21,1.23h0l-.22,27-.34,26.9Zm0,0-.67-53.91-.35-26.72-.21-26.62,1.23,1.23-47.67.35c-15.89.14-31.78.16-47.67.23l-47.66.13-47.67.06,2-2-.07,53.62-.16,53.63-1.77-1.77q23.69.06,47.39.31l47.51.41Z"/></g><path class="cls-3" d="M591.24,380.2l-94.9,1.05-47.82.41q-24,.21-47.95.3a1.76,1.76,0,0,1-1.76-1.76h0l-.17-53.63L398.57,273a2,2,0,0,1,2-2h0l47.67.06,47.66.12c15.89.07,31.78.09,47.67.23l47.67.36h0a1.22,1.22,0,0,1,1.21,1.23h0l-.22,27-.34,26.9Zm0,0-.67-53.91-.35-26.72L590,273l1.23,1.23-47.67.35c-15.89.14-31.78.16-47.67.23l-47.66.13-47.67.06,2-2-.07,53.62-.16,53.63-1.77-1.77q23.69.06,47.39.31l47.51.41Z"/><text class="cls-4" transform="translate(424.32 323.5)"><tspan class="cls-5">S</tspan><tspan x="13.36" y="0">oft</tspan><tspan class="cls-6" x="50.88" y="0">w</tspan><tspan x="70.45" y="0">are &amp;</tspan><tspan x="11.51" y="28.8">firm</tspan><tspan class="cls-6" x="62.65" y="28.8">w</tspan><tspan x="82.22" y="28.8">are</tspan></text><g class="cls-1"><rect class="cls-2" x="280.04" y="447.2" width="190.67" height="107.25"/><path class="cls-2" d="M470.7,554.45l-94.89,1-47.83.41q-23.94.21-47.94.3a1.77,1.77,0,0,1-1.77-1.76h0l-.16-53.63L278,447.2a2,2,0,0,1,2-2h0l47.66.06,47.67.12c15.89.07,31.78.09,47.67.23l47.66.36h0a1.22,1.22,0,0,1,1.22,1.23h0l-.22,27-.34,26.9Zm0,0L470,500.54l-.34-26.72-.22-26.62,1.23,1.23-47.66.35c-15.89.14-31.78.16-47.67.23l-47.67.13L280,449.2l2-2L282,500.82l-.17,53.63L280,552.68q23.67.06,47.39.31l47.51.41Z"/></g><path class="cls-3" d="M463.5,547.25l-94.89,1-47.83.41q-23.94.21-47.94.3a1.77,1.77,0,0,1-1.77-1.76h0l-.16-53.63L270.84,440a2,2,0,0,1,2-2h0l47.66.06,47.67.12c15.89.07,31.78.09,47.67.23l47.66.36h0a1.22,1.22,0,0,1,1.22,1.23h0l-.22,27-.34,26.9Zm0,0-.67-53.91-.34-26.72L462.27,440l1.23,1.23-47.66.35c-15.89.14-31.78.16-47.67.23l-47.67.13-47.66.06,2-2-.07,53.62-.17,53.63-1.76-1.77q23.67.06,47.39.31l47.51.41Z"/><text class="cls-4" transform="translate(312.77 504.95)"><tspan class="cls-7">c</tspan><tspan x="11.6" y="0">urrent</tspan></text><g class="cls-1"><rect class="cls-2" x="513.9" y="447.2" width="190.67" height="107.25"/><path class="cls-2" d="M704.57,554.45l-94.9,1-47.82.41q-23.94.21-48,.3a1.76,1.76,0,0,1-1.76-1.76h0L512,500.82l-.06-53.62a2,2,0,0,1,2-2h0l47.67.06,47.67.12c15.89.07,31.78.09,47.66.23l47.67.36h0a1.21,1.21,0,0,1,1.21,1.23h0l-.21,27-.35,26.9Zm0,0-.67-53.91-.34-26.72-.22-26.62,1.23,1.23-47.67.35c-15.88.14-31.77.16-47.66.23l-47.67.13-47.67.06,2-2-.06,53.62-.17,53.63-1.77-1.77q23.69.06,47.39.31l47.51.41Z"/></g><path class="cls-3" d="M697.37,547.25l-94.9,1-47.82.41q-23.94.21-47.95.3a1.76,1.76,0,0,1-1.76-1.76h0l-.17-53.63L504.71,440a2,2,0,0,1,2-2h0l47.67.06,47.67.12c15.89.07,31.78.09,47.66.23l47.67.36h0A1.21,1.21,0,0,1,698.6,440h0l-.21,27L698,493.9Zm0,0-.67-53.91-.34-26.72L696.14,440l1.23,1.23-47.67.35c-15.88.14-31.77.16-47.66.23l-47.67.13L506.7,442l2-2-.06,53.62-.17,53.63-1.77-1.77q23.69.06,47.39.31l47.51.41Z"/><text class="cls-4" transform="translate(561.04 504.95)">legacy</text><g class="cls-1"><rect class="cls-8" x="1719.88" y="280.15" width="190.67" height="107.25"/><path class="cls-8" d="M1910.55,387.4l-94.9,1.05-47.82.41q-24,.21-47.95.3a1.76,1.76,0,0,1-1.76-1.76h0l-.17-53.63-.07-53.62a2,2,0,0,1,2-2h0l47.67.06,47.66.12c15.89.07,31.78.09,47.67.23l47.67.36h0a1.22,1.22,0,0,1,1.21,1.23h0l-.22,27-.34,26.9Zm0,0-.68-53.91-.34-26.72-.21-26.62,1.23,1.23-47.67.35c-15.89.14-31.78.16-47.67.23l-47.66.13-47.67.06,2-2-.07,53.62-.17,53.63-1.76-1.77q23.67.06,47.39.31l47.51.41Z"/></g><path class="cls-3" d="M1903.35,380.2l-94.9,1.05-47.82.41q-24,.21-48,.3a1.76,1.76,0,0,1-1.76-1.76h0l-.17-53.63-.07-53.62a2,2,0,0,1,2-2h0l47.67.06,47.66.12c15.89.07,31.78.09,47.67.23l47.67.36h0a1.22,1.22,0,0,1,1.21,1.23h0l-.22,27-.34,26.9Zm0,0-.68-53.91-.34-26.72-.21-26.62,1.23,1.23-47.67.35c-15.89.14-31.78.16-47.67.23l-47.66.13-47.67.06,2-2-.07,53.62-.17,53.63-1.76-1.77q23.67.06,47.39.31l47.51.41Z"/><text class="cls-4" transform="translate(1727.26 337.9)">do<tspan class="cls-7" x="27.02" y="0">c</tspan><tspan x="38.63" y="0">umen</tspan><tspan class="cls-9" x="98.27" y="0">ta</tspan><tspan x="121.34" y="0">t</tspan><tspan class="cls-5" x="132.84" y="0">i</tspan><tspan x="140.06" y="0">on</tspan></text><g class="cls-1"><rect class="cls-8" x="1919.28" y="433.17" width="190.67" height="107.25"/><path class="cls-8" d="M2110,540.42l-94.9,1.05-47.82.41q-23.94.21-48,.31a1.76,1.76,0,0,1-1.76-1.76h0l-.17-53.62-.06-53.63a2,2,0,0,1,2-2h0l47.67.06,47.67.13c15.89.07,31.78.09,47.66.23l47.67.35h0a1.22,1.22,0,0,1,1.21,1.23h0l-.22,27-.34,26.9Zm0,0-.67-53.9-.34-26.73-.22-26.62,1.23,1.23-47.67.35c-15.88.15-31.77.16-47.66.24l-47.67.12-47.67.06,2-2-.06,53.63-.17,53.62-1.77-1.76q23.68.06,47.39.3l47.51.41Z"/></g><path class="cls-3" d="M2102.75,533.22l-94.9,1-47.82.41q-23.94.21-48,.31a1.76,1.76,0,0,1-1.76-1.76h0l-.17-53.62-.06-53.63a2,2,0,0,1,2-2h0l47.67.06,47.67.13c15.89.07,31.78.08,47.66.23l47.67.35h0A1.22,1.22,0,0,1,2104,426h0l-.22,27-.34,26.9Zm0,0-.67-53.9-.34-26.73-.22-26.62,1.23,1.23-47.67.35c-15.88.15-31.77.16-47.66.24l-47.67.12-47.67.06,2-2L1914,479.6l-.17,53.62-1.77-1.76c15.79,0,31.58.16,47.39.3l47.51.41Z"/><text class="cls-4" transform="translate(1965.9 476.52)">pro<tspan class="cls-6" x="40.66" y="0">d</tspan><tspan x="52.36" y="0">uct</tspan><tspan x="-39.23" y="28.8">do</tspan><tspan class="cls-7" x="-12.21" y="28.8">c</tspan><tspan x="-0.61" y="28.8">umen</tspan><tspan class="cls-9" x="59.04" y="28.8">ta</tspan><tspan x="82.1" y="28.8">t</tspan><tspan class="cls-5" x="93.61" y="28.8">i</tspan><tspan x="100.83" y="28.8">on</tspan></text><g class="cls-1"><rect class="cls-8" x="1917.75" y="1056.72" width="190.67" height="107.25"/><path class="cls-8" d="M2108.41,1164l-94.89,1-47.83.41q-23.94.21-47.94.31A1.76,1.76,0,0,1,1916,1164h0l-.17-53.62-.06-53.63a2,2,0,0,1,2-2h0l47.66.06,47.67.13c15.89.07,31.78.09,47.67.23l47.66.35h0a1.22,1.22,0,0,1,1.21,1.23h0l-.21,27-.34,26.9Zm0,0-.67-53.9-.34-26.73-.22-26.62,1.23,1.23-47.66.35c-15.89.15-31.78.16-47.67.24l-47.67.12-47.66.06,2-2-.07,53.63-.17,53.62-1.76-1.76q23.67.06,47.38.3l47.51.41Z"/></g><path class="cls-3" d="M2101.21,1156.77l-94.89,1-47.83.41q-23.94.23-47.94.31a1.76,1.76,0,0,1-1.77-1.76h0l-.17-53.62-.06-53.63a2,2,0,0,1,2-2h0l47.66.06,47.67.13c15.89.07,31.78.09,47.67.23l47.66.35h0a1.22,1.22,0,0,1,1.21,1.23h0l-.21,27-.34,26.9Zm0,0-.67-53.9-.34-26.73-.22-26.62,1.23,1.23-47.66.35c-15.89.15-31.78.16-47.67.24l-47.67.12-47.66.06,2-2-.07,53.63-.17,53.62-1.76-1.76q23.67.06,47.38.3l47.51.41Z"/><text class="cls-4" transform="translate(1952.66 1100.07)"><tspan class="cls-6">d</tspan><tspan x="11.7" y="0">evel</tspan><tspan class="cls-5" x="61.17" y="0">o</tspan><tspan x="75.8" y="0">p</tspan><tspan class="cls-6" x="88.38" y="0">e</tspan><tspan x="100.66" y="0">r</tspan><tspan x="-27.53" y="28.8">do</tspan><tspan class="cls-7" x="-0.5" y="28.8">c</tspan><tspan x="11.1" y="28.8">umen</tspan><tspan class="cls-9" x="70.75" y="28.8">ta</tspan><tspan x="93.81" y="28.8">t</tspan><tspan class="cls-5" x="105.32" y="28.8">i</tspan><tspan x="112.54" y="28.8">on</tspan></text><g class="cls-1"><rect class="cls-8" x="1926.48" y="1498.55" width="190.67" height="107.25"/><path class="cls-8" d="M2117.15,1605.8l-94.9,1-47.82.41q-23.94.21-48,.31a1.76,1.76,0,0,1-1.76-1.76h0l-.17-53.62-.06-53.63a2,2,0,0,1,2-2h0l47.67.06,47.67.13c15.89.07,31.78.09,47.66.23l47.67.35h0a1.22,1.22,0,0,1,1.21,1.23h0l-.22,27-.34,26.9Zm0,0-.67-53.9-.34-26.73-.22-26.62,1.23,1.23-47.67.35c-15.88.15-31.77.16-47.66.24l-47.67.12-47.67.06,2-2-.06,53.63-.17,53.62-1.77-1.76q23.68.06,47.39.3l47.51.41Z"/></g><path class="cls-3" d="M2110,1598.6l-94.9,1.05-47.82.41q-23.94.21-48,.31a1.76,1.76,0,0,1-1.76-1.76h0l-.17-53.62-.06-53.63a2,2,0,0,1,2-2h0l47.67.06,47.67.13c15.89.07,31.78.09,47.66.23l47.67.35h0a1.22,1.22,0,0,1,1.21,1.23h0l-.22,27-.34,26.9Zm0,0-.67-53.9-.34-26.73-.22-26.62,1.23,1.23-47.67.35c-15.88.15-31.77.16-47.66.24l-47.67.12-47.67.06,2-2-.06,53.63-.17,53.62-1.77-1.76q23.68.06,47.39.3l47.51.41Z"/><text class="cls-4" transform="translate(1985.76 1541.9)">MS<tspan class="cls-6" x="37.2" y="0">D</tspan><tspan x="51.09" y="0">S</tspan><tspan x="-30.06" y="28.8">downloa</tspan><tspan class="cls-6" x="72.15" y="28.8">d</tspan><tspan x="83.85" y="28.8">s</tspan></text><g class="cls-1"><rect class="cls-8" x="2118.69" y="1197.65" width="190.67" height="107.25"/><path class="cls-8" d="M2309.35,1304.9l-94.89,1-47.83.41q-23.94.21-47.94.31a1.78,1.78,0,0,1-1.77-1.76h0l-.16-53.62-.07-53.63a2,2,0,0,1,2-2h0l47.66.06,47.67.13c15.89.07,31.78.09,47.67.23l47.66.35h0a1.23,1.23,0,0,1,1.22,1.23h0l-.22,27-.34,26.9Zm0,0-.67-53.9-.34-26.73-.22-26.62,1.23,1.23-47.66.35c-15.89.15-31.78.16-47.67.24l-47.67.12-47.66.06,2-2-.07,53.63-.17,53.62-1.76-1.76q23.67.06,47.39.3l47.51.41Z"/></g><path class="cls-3" d="M2302.16,1297.7l-94.9,1-47.83.41q-23.94.21-47.94.31a1.78,1.78,0,0,1-1.77-1.76h0l-.16-53.62-.07-53.63a2,2,0,0,1,2-2h0l47.67.06,47.66.13c15.89.07,31.78.09,47.67.23l47.67.35h0a1.23,1.23,0,0,1,1.22,1.23h0l-.22,27-.34,26.9Zm0,0-.68-53.9-.34-26.73-.21-26.62,1.23,1.23-47.67.35c-15.89.15-31.78.16-47.67.24l-47.66.12-47.67.06,2-2-.07,53.63-.17,53.62-1.76-1.76q23.67.06,47.39.3l47.51.41Z"/><text class="cls-4" transform="translate(2137.11 1241)">Hydr<tspan class="cls-7" x="51.21" y="0">o</tspan><tspan x="65.58" y="0">Vu A</tspan><tspan class="cls-5" x="119.37" y="0">P</tspan><tspan x="134.25" y="0">I</tspan><tspan x="47.09" y="28.8">Do</tspan><tspan class="cls-6" x="76.31" y="28.8">c</tspan><tspan x="88.41" y="28.8">s</tspan></text><g class="cls-1"><rect class="cls-8" x="2118.69" y="1348.1" width="190.67" height="107.25"/><path class="cls-8" d="M2309.35,1455.35l-94.89,1.05-47.83.41q-23.94.21-47.94.31a1.78,1.78,0,0,1-1.77-1.76h0l-.16-53.62-.07-53.63a2,2,0,0,1,2-2h0l47.66.06,47.67.13c15.89.07,31.78.09,47.67.23l47.66.35h0a1.23,1.23,0,0,1,1.22,1.23h0l-.22,27L2310,1402Zm0,0-.67-53.9-.34-26.73-.22-26.62,1.23,1.23-47.66.35c-15.89.15-31.78.16-47.67.24l-47.67.12-47.66.06,2-2-.07,53.63-.17,53.62-1.76-1.76q23.67.06,47.39.3l47.51.41Z"/></g><path class="cls-3" d="M2302.16,1448.15l-94.9,1-47.83.41q-23.94.21-47.94.31a1.78,1.78,0,0,1-1.77-1.76h0l-.16-53.62-.07-53.63a2,2,0,0,1,2-2h0l47.67.06,47.66.13c15.89.07,31.78.09,47.67.23l47.66.35h0a1.23,1.23,0,0,1,1.22,1.23h0l-.22,27-.34,26.9Zm0,0-.68-53.9-.34-26.73-.22-26.62,1.23,1.23-47.66.35c-15.89.15-31.78.16-47.67.24l-47.66.12-47.67.06,2-2-.07,53.63-.17,53.62-1.76-1.76q23.67.06,47.39.3l47.51.41Z"/><text class="cls-4" transform="translate(2133.51 1391.45)">VuSitu HTML<tspan x="22.84" y="28.8">File Do</tspan><tspan class="cls-6" x="107.75" y="28.8">c</tspan><tspan x="119.85" y="28.8">s</tspan></text><rect class="cls-10" x="1189.32" y="280.15" width="190.67" height="107.25"/><path class="cls-10" d="M1380,387.4l-94.9,1.05-47.83.41q-23.94.21-47.94.3a1.77,1.77,0,0,1-1.77-1.76h0l-.16-53.63-.07-53.62a2,2,0,0,1,2-2h0l47.67.06,47.66.12c15.89.07,31.78.09,47.67.23l47.67.36h0a1.22,1.22,0,0,1,1.22,1.23h0l-.22,27-.34,26.9Zm0,0-.68-53.91-.34-26.72-.21-26.62,1.23,1.23-47.67.35c-15.89.14-31.78.16-47.67.23l-47.66.13-47.67.06,2-2-.07,53.62-.17,53.63-1.76-1.77q23.67.06,47.39.31l47.51.41Z"/><path class="cls-3" d="M1372.79,380.2l-94.9,1.05-47.83.41q-23.94.21-47.94.3a1.77,1.77,0,0,1-1.77-1.76h0l-.16-53.63-.07-53.62a2,2,0,0,1,2-2h0l47.67.06,47.66.12c15.89.07,31.78.09,47.67.23l47.67.36h0A1.22,1.22,0,0,1,1374,273h0l-.22,27-.34,26.9Zm0,0-.68-53.91-.34-26.72-.21-26.62,1.23,1.23-47.67.35c-15.89.14-31.78.16-47.67.23l-47.66.13-47.67.06,2-2-.07,53.62-.17,53.63-1.76-1.77q23.67.06,47.39.31l47.51.41Z"/><text class="cls-4" transform="translate(1227.17 310.9)">Suppo<tspan class="cls-7" x="68.13" y="0">r</tspan><tspan x="80.39" y="0">t</tspan><tspan x="38.75" y="28.8">&amp;</tspan><tspan x="4.79" y="57.6">S</tspan><tspan class="cls-6" x="18.62" y="57.6">e</tspan><tspan class="cls-7" x="30.9" y="57.6">r</tspan><tspan x="43.16" y="57.6">vi</tspan><tspan class="cls-6" x="62.5" y="57.6">c</tspan><tspan x="74.59" y="57.6">e</tspan></text><rect class="cls-10" x="1064.4" y="447.47" width="190.67" height="107.25"/><path class="cls-10" d="M1255.07,554.72l-94.9,1-47.82.41q-24,.21-47.95.3a1.76,1.76,0,0,1-1.76-1.76h0l-.17-53.63-.07-53.62a2,2,0,0,1,2-2h0l47.67.06,47.66.12c15.89.07,31.78.09,47.67.23l47.67.36h0a1.22,1.22,0,0,1,1.21,1.23h0l-.22,27-.34,26.9Zm0,0-.68-53.91-.34-26.72-.21-26.62,1.23,1.23-47.67.35c-15.89.14-31.78.16-47.67.23l-47.66.13-47.67,0,2-2-.07,53.62-.17,53.63L1064.4,553q23.67.06,47.39.3l47.51.42Z"/><path class="cls-3" d="M1247.87,547.52l-94.9,1.05-47.82.41q-24,.21-48,.3a1.76,1.76,0,0,1-1.76-1.76h0l-.17-53.63-.07-53.62a2,2,0,0,1,2-2h0l47.67.06,47.66.12c15.89.07,31.78.09,47.67.23l47.67.36h0a1.22,1.22,0,0,1,1.21,1.23h0l-.22,27-.34,26.9Zm0,0-.68-53.91-.34-26.72-.21-26.62,1.23,1.23-47.67.35c-15.89.14-31.78.16-47.67.23l-47.66.13-47.67.06,2-2-.07,53.62-.17,53.63-1.76-1.77q23.67.06,47.39.3l47.51.42Z"/><text class="cls-4" transform="translate(1114.4 476.06)"><tspan class="cls-6">F</tspan><tspan x="13.57" y="0">AQs/</tspan><tspan x="-30.15" y="28.8">knowledge</tspan><tspan x="9.08" y="57.6">b</tspan><tspan class="cls-5" x="22.84" y="57.6">a</tspan><tspan x="36.32" y="57.6">se</tspan></text><rect class="cls-10" x="866.53" y="601.59" width="190.67" height="107.25"/><path class="cls-10" d="M1057.2,708.84l-94.9,1-47.82.41q-23.94.21-48,.3a1.75,1.75,0,0,1-1.76-1.75h0l-.17-53.63-.07-53.62a2,2,0,0,1,2-2h0l47.67.06,47.67.12c15.89.08,31.77.09,47.66.24l47.67.35h0a1.21,1.21,0,0,1,1.21,1.23h0l-.22,27-.34,26.9Zm0,0-.67-53.91-.34-26.72-.22-26.62,1.23,1.23-47.67.35c-15.89.14-31.77.16-47.66.23l-47.67.13-47.67.06,2-2-.06,53.62-.17,53.63-1.77-1.77c15.79,0,31.58.17,47.39.31l47.51.41Z"/><path class="cls-3" d="M1050,701.64l-94.9,1.05-47.82.41q-23.94.21-47.95.3a1.75,1.75,0,0,1-1.76-1.75h0L857.4,648l-.07-53.62a2,2,0,0,1,2-2h0l47.67.06,47.67.12c15.89.08,31.77.09,47.66.24l47.67.35h0a1.21,1.21,0,0,1,1.21,1.23h0l-.22,27-.34,26.9Zm0,0-.67-53.91L1049,621l-.22-26.62,1.23,1.23-47.67.35c-15.89.14-31.77.16-47.66.23l-47.67.13-47.67.06,2-2L861.27,648l-.17,53.63-1.77-1.77c15.79,0,31.58.17,47.39.31l47.51.41Z"/><text class="cls-4" transform="translate(889.33 644.58)">Hard<tspan class="cls-6" x="55.55" y="0">w</tspan><tspan x="75.12" y="0">are </tspan><tspan class="cls-6" x="32.02" y="28.8">F</tspan><tspan x="45.59" y="28.8">AQs</tspan></text><rect class="cls-10" x="866.53" y="753.22" width="190.67" height="107.25"/><path class="cls-10" d="M1057.2,860.47l-94.9,1-47.82.41q-23.94.21-48,.3a1.75,1.75,0,0,1-1.76-1.75h0l-.17-53.63-.07-53.62a2,2,0,0,1,2-2h0l47.67.06,47.67.12c15.89.07,31.77.09,47.66.23l47.67.36h0a1.21,1.21,0,0,1,1.21,1.23h0l-.22,27-.34,26.9Zm0,0-.67-53.91-.34-26.72-.22-26.62,1.23,1.23-47.67.35c-15.89.14-31.77.16-47.66.23l-47.67.13-47.67.06,2-2-.07,53.62-.16,53.63-1.77-1.77q23.69.06,47.39.31l47.51.41Z"/><path class="cls-3" d="M1050,853.27l-94.9,1.05-47.82.41q-23.94.21-47.95.3a1.75,1.75,0,0,1-1.76-1.75h0l-.17-53.63L857.33,746a2,2,0,0,1,2-2h0l47.67.06,47.67.12c15.89.07,31.77.09,47.66.23l47.67.36h0a1.21,1.21,0,0,1,1.21,1.23h0l-.22,27-.34,26.9Zm0,0-.67-53.91-.34-26.72-.22-26.62,1.23,1.23-47.67.35c-15.89.14-31.77.16-47.66.23L907,748l-47.67.06,2-2-.07,53.62-.16,53.63-1.77-1.77q23.68.06,47.39.31l47.51.41Z"/><text class="cls-4" transform="translate(896.1 796.21)"><tspan class="cls-5">S</tspan><tspan x="13.36" y="0">oft</tspan><tspan class="cls-6" x="50.88" y="0">w</tspan><tspan x="70.45" y="0">are</tspan><tspan class="cls-6" x="25.24" y="28.8">F</tspan><tspan x="38.81" y="28.8">AQs</tspan></text><rect class="cls-10" x="1298.37" y="447.47" width="190.67" height="107.25"/><path class="cls-10" d="M1489,554.72l-94.9,1-47.82.41q-24,.21-48,.3a1.76,1.76,0,0,1-1.76-1.76h0l-.17-53.63-.07-53.62a2,2,0,0,1,2-2h0l47.67.06,47.66.12c15.89.07,31.78.09,47.67.23l47.67.36h0a1.22,1.22,0,0,1,1.21,1.23h0l-.22,27-.34,26.9Zm0,0-.67-53.91-.35-26.72-.21-26.62,1.23,1.23-47.67.35c-15.89.14-31.78.16-47.67.23l-47.66.13-47.67,0,2-2-.07,53.62-.16,53.63-1.77-1.77q23.69.06,47.39.3l47.51.42Z"/><path class="cls-3" d="M1481.84,547.52l-94.9,1.05-47.82.41q-23.94.21-47.95.3a1.76,1.76,0,0,1-1.76-1.76h0l-.17-53.63-.07-53.62a2,2,0,0,1,2-2h0l47.67.06,47.66.12c15.89.07,31.78.09,47.67.23l47.67.36h0a1.22,1.22,0,0,1,1.21,1.23h0l-.22,27-.34,26.9Zm0,0-.67-53.91-.35-26.72-.21-26.62,1.23,1.23-47.67.35c-15.89.14-31.78.16-47.67.23l-47.66.13-47.67.06,2-2-.07,53.62-.16,53.63-1.77-1.77q23.68.06,47.39.3l47.51.42Z"/><text class="cls-4" transform="translate(1320.61 501.26)">con<tspan class="cls-9" x="40.97" y="0">t</tspan><tspan x="51.28" y="0">act us</tspan></text><rect class="cls-10" x="1496.24" y="622.13" width="190.67" height="107.25"/><path class="cls-10" d="M1686.9,729.38l-94.89,1-47.83.41c-16,.14-32,.27-47.94.3a1.76,1.76,0,0,1-1.77-1.75h0l-.16-53.63-.07-53.62a2,2,0,0,1,2-2h0l47.66.06,47.67.12c15.89.08,31.78.09,47.67.24l47.66.35h0a1.21,1.21,0,0,1,1.21,1.23h0l-.21,27-.34,26.89Zm0,0-.67-53.9-.34-26.73-.22-26.62,1.23,1.23-47.66.35c-15.89.15-31.78.16-47.67.23l-47.67.13-47.66.06,2-2-.07,53.62-.17,53.63-1.76-1.77c15.78,0,31.57.17,47.39.31l47.51.41Z"/><path class="cls-3" d="M1679.7,722.18l-94.89,1.05-47.83.41c-16,.14-32,.27-47.94.3a1.76,1.76,0,0,1-1.77-1.75h0l-.16-53.63-.07-53.62a2,2,0,0,1,2-2h0l47.66.06,47.67.12c15.89.08,31.78.09,47.67.24l47.66.35h0a1.21,1.21,0,0,1,1.21,1.23h0l-.21,27-.34,26.89Zm0,0-.67-53.9-.34-26.73-.22-26.62,1.23,1.23-47.66.35c-15.89.15-31.78.16-47.67.23l-47.67.13-47.66.06,2-2-.07,53.62-.17,53.63-1.76-1.77c15.78,0,31.57.17,47.39.31l47.51.41Z"/><text class="cls-4" transform="translate(1505.95 654.32)">t<tspan class="cls-6" x="11.51" y="0">e</tspan><tspan x="23.79" y="0">ch suppo</tspan><tspan class="cls-7" x="124.41" y="0">r</tspan><tspan x="136.66" y="0">t</tspan><tspan x="29.55" y="28.8">con</tspan><tspan class="cls-9" x="70.52" y="28.8">t</tspan><tspan x="80.84" y="28.8">act</tspan><tspan x="50.46" y="57.6">info</tspan></text><rect class="cls-10" x="1496.24" y="762.96" width="190.67" height="107.25"/><path class="cls-10" d="M1686.9,870.21l-94.89,1-47.83.41q-23.94.21-47.94.3a1.76,1.76,0,0,1-1.77-1.75h0l-.16-53.63-.07-53.62a2,2,0,0,1,2-2h0l47.66.06,47.67.12c15.89.08,31.78.09,47.67.24l47.66.35h0a1.21,1.21,0,0,1,1.21,1.23h0l-.21,27-.34,26.9Zm0,0-.67-53.91-.34-26.72-.22-26.62,1.23,1.23-47.66.35c-15.89.14-31.78.16-47.67.23l-47.67.13-47.66.06,2-2-.07,53.62-.17,53.63-1.76-1.77c15.78,0,31.57.17,47.39.31l47.51.41Z"/><path class="cls-3" d="M1679.7,863l-94.89,1-47.83.41q-23.94.21-47.94.3a1.76,1.76,0,0,1-1.77-1.75h0l-.16-53.63-.07-53.62a2,2,0,0,1,2-2h0l47.66.06,47.67.12c15.89.08,31.78.09,47.67.24l47.66.35h0a1.22,1.22,0,0,1,1.22,1.23h0l-.22,27-.34,26.9Zm0,0L1679,809.1l-.34-26.72-.22-26.62,1.23,1.23-47.66.35c-15.89.14-31.78.16-47.67.23l-47.67.13-47.66.06,2-2-.07,53.62L1490.8,863l-1.76-1.77c15.78,0,31.57.17,47.39.31l47.51.41Z"/><text class="cls-4" transform="translate(1540.23 809.55)">s<tspan class="cls-6" x="11.13" y="0">e</tspan><tspan class="cls-7" x="23.41" y="0">r</tspan><tspan x="35.67" y="0">vi</tspan><tspan class="cls-6" x="55.01" y="0">c</tspan><tspan x="67.1" y="0">e</tspan><tspan x="16.18" y="28.8">info</tspan></text><rect class="cls-10" x="1496.24" y="903.79" width="190.67" height="107.25"/><path class="cls-10" d="M1686.9,1011l-94.89,1.05-47.83.41q-23.94.21-47.94.3a1.77,1.77,0,0,1-1.77-1.75h0l-.16-53.63-.07-53.62a2,2,0,0,1,2-2h0l47.66.06,47.67.12c15.89.07,31.78.09,47.67.23l47.66.36h0a1.21,1.21,0,0,1,1.21,1.23h0l-.21,27-.34,26.9Zm0,0-.67-53.91-.34-26.72-.22-26.62,1.23,1.23-47.66.35c-15.89.14-31.78.16-47.67.23l-47.67.13-47.66.06,2-2-.07,53.62L1498,1011l-1.76-1.77q23.67.06,47.39.31l47.51.41Z"/><path class="cls-3" d="M1679.7,1003.84l-94.89,1-47.83.41q-23.94.21-47.94.3a1.77,1.77,0,0,1-1.77-1.75h0l-.16-53.63-.07-53.62a2,2,0,0,1,2-2h0l47.66.06,47.67.12c15.89.07,31.78.09,47.67.23l47.66.36h0a1.21,1.21,0,0,1,1.21,1.23h0l-.21,27-.34,26.9Zm0,0-.67-53.91-.34-26.72-.22-26.62,1.23,1.23-47.66.35c-15.89.14-31.78.16-47.67.23l-47.67.13-47.66.06,2-2-.07,53.62-.17,53.63-1.76-1.77q23.67.06,47.39.31l47.51.41Z"/><text class="cls-4" transform="translate(1523.09 957.58)">rma form</text><polyline class="cls-11" points="495.9 272.95 495.9 218.62 1808.01 218.62 1808.01 272.95"/><line class="cls-11" x1="1273.12" y1="272.95" x2="1273.12" y2="218.62"/><g class="cls-1"><rect class="cls-8" x="2114.75" y="620.7" width="190.67" height="107.25"/><path class="cls-8" d="M2305.41,728l-94.89,1-47.83.41q-23.94.23-47.94.31A1.76,1.76,0,0,1,2113,728h0l-.17-53.62-.06-53.63a2,2,0,0,1,2-2h0l47.66.06,47.67.13c15.89.07,31.78.09,47.67.23l47.66.35h0a1.22,1.22,0,0,1,1.21,1.23h0l-.21,27-.34,26.9Zm0,0-.67-53.9-.34-26.73-.22-26.62,1.23,1.23-47.66.36c-15.89.14-31.78.16-47.67.23l-47.67.12-47.66.06,2-2-.07,53.63-.17,53.62-1.76-1.76q23.67.06,47.38.3l47.51.41Z"/></g><path class="cls-3" d="M2298.21,720.75l-94.89,1-47.83.41q-23.94.22-47.94.31a1.76,1.76,0,0,1-1.77-1.76h0l-.17-53.62-.06-53.63a2,2,0,0,1,2-2h0l47.66.06,47.67.13c15.89.07,31.78.09,47.67.23l47.66.35h0a1.22,1.22,0,0,1,1.21,1.23h0l-.21,27-.34,26.9Zm0,0-.67-53.9-.34-26.73L2297,613.5l1.23,1.23-47.66.36c-15.89.14-31.78.16-47.67.23l-47.67.12-47.66.06,2-2-.07,53.63-.17,53.62-1.76-1.76q23.67.06,47.38.3l47.51.41Z"/><text class="cls-4" transform="translate(2155.82 678.45)">Man<tspan class="cls-7" x="50.86" y="0">u</tspan><tspan x="64.17" y="0">a</tspan><tspan class="cls-7" x="78.12" y="0">l</tspan><tspan x="90.19" y="0">s</tspan></text><g class="cls-1"><rect class="cls-8" x="2114.75" y="763.49" width="190.67" height="107.25"/><path class="cls-8" d="M2305.41,870.74l-94.89,1-47.83.41q-23.94.21-47.94.3a1.76,1.76,0,0,1-1.77-1.75h0l-.17-53.63-.06-53.62a2,2,0,0,1,2-2h0l47.66.06,47.67.12c15.89.08,31.78.09,47.67.24l47.66.35h0a1.21,1.21,0,0,1,1.21,1.23h0l-.21,27-.34,26.9Zm0,0-.67-53.91-.34-26.72-.22-26.62,1.23,1.23-47.66.35c-15.89.14-31.78.16-47.67.23l-47.67.13-47.66.06,2-2-.07,53.62-.17,53.63-1.76-1.77q23.67.06,47.38.31l47.51.41Z"/></g><path class="cls-3" d="M2298.21,863.54l-94.89,1.05-47.83.41q-23.94.21-47.94.3a1.76,1.76,0,0,1-1.77-1.75h0l-.17-53.63-.06-53.62a2,2,0,0,1,2-2h0l47.66.06,47.67.12c15.89.08,31.78.09,47.67.24l47.66.35h0a1.21,1.21,0,0,1,1.21,1.23h0l-.21,27-.34,26.9Zm0,0-.67-53.91-.34-26.72-.22-26.62,1.23,1.23-47.66.35c-15.89.14-31.78.16-47.67.23l-47.67.13-47.66.06,2-2-.07,53.62-.17,53.63-1.76-1.77c15.78,0,31.57.17,47.38.31l47.51.41Z"/><text class="cls-4" transform="translate(2175.96 821.24)">QS<tspan class="cls-7" x="31.69" y="0">G</tspan><tspan x="49.9" y="0">s</tspan></text><g class="cls-1"><rect class="cls-8" x="2114.75" y="906.27" width="190.67" height="107.25"/><path class="cls-8" d="M2305.41,1013.52l-94.89,1.05-47.83.41q-23.94.21-47.94.31a1.76,1.76,0,0,1-1.77-1.76h0l-.17-53.62-.06-53.63a2,2,0,0,1,2-2h0l47.66.06,47.67.13c15.89.07,31.78.09,47.67.23l47.66.35h0a1.22,1.22,0,0,1,1.21,1.23h0l-.21,27-.34,26.9Zm0,0-.67-53.9-.34-26.73-.22-26.62,1.23,1.23-47.66.35c-15.89.15-31.78.16-47.67.24l-47.67.12-47.66.06,2-2-.07,53.63-.17,53.62-1.76-1.76q23.67.06,47.38.3l47.51.41Z"/></g><path class="cls-3" d="M2298.21,1006.32l-94.89,1-47.83.41q-23.94.21-47.94.31a1.76,1.76,0,0,1-1.77-1.76h0l-.17-53.62-.06-53.63a2,2,0,0,1,2-2h0l47.66.06,47.67.13c15.89.07,31.78.09,47.67.23l47.66.35h0a1.22,1.22,0,0,1,1.21,1.23h0l-.21,27-.34,26.9Zm0,0-.67-53.9-.34-26.73-.22-26.62,1.23,1.23-47.66.35c-15.89.15-31.78.16-47.67.24l-47.67.12-47.66.06,2-2-.07,53.63-.17,53.62-1.76-1.76q23.67.06,47.38.3l47.51.41Z"/><text class="cls-4" transform="translate(2139.07 949.62)">Inst<tspan class="cls-5" x="48.56" y="0">r</tspan><tspan x="61.08" y="0">uct</tspan><tspan class="cls-5" x="98.95" y="0">i</tspan><tspan x="106.17" y="0">on</tspan><tspan x="31.02" y="28.8">sheets</tspan></text><polyline class="cls-11" points="2005.01 535.63 2005.01 952.7 2107.55 952.7"/><line class="cls-11" x1="2107.55" y1="667.13" x2="2005.01" y2="667.13"/><line class="cls-11" x1="2107.55" y1="809.91" x2="2005.01" y2="809.91"/><polyline class="cls-11" points="1386.51 551.19 1386.51 957.41 1489.04 957.41"/><line class="cls-11" x1="1489.04" y1="668.72" x2="1386.5" y2="668.72"/><line class="cls-11" x1="1489.04" y1="816.58" x2="1386.5" y2="816.58"/><polyline class="cls-11" points="368.17 440 368.17 411.2 602.04 411.2 602.04 440"/><polyline class="cls-11" points="1148.92 440 1148.92 411.2 1382.79 411.2 1382.79 440"/><line class="cls-11" x1="495.9" y1="380.2" x2="495.9" y2="411.2"/><line class="cls-11" x1="1273.12" y1="380.2" x2="1273.12" y2="411.2"/><rect class="cls-12" x="1185.72" y="75.37" width="190.67" height="107.25"/><path class="cls-3" d="M1369.19,175.42l-94.9,1.05-47.83.41q-23.94.21-47.94.31a1.78,1.78,0,0,1-1.77-1.76h0l-.16-53.62-.07-53.63a2,2,0,0,1,2-2h0l47.67.06,47.66.13c15.89.07,31.78.08,47.67.23l47.67.35h0a1.23,1.23,0,0,1,1.22,1.23h0l-.22,27-.34,26.89Zm0,0-.68-53.9-.34-26.73L1368,68.17l1.23,1.23-47.67.35c-15.89.15-31.78.16-47.67.24l-47.66.12-47.67.06,2-2-.07,53.63-.17,53.62-1.76-1.76c15.78,0,31.57.16,47.39.3l47.51.41Z"/><text class="cls-4" transform="translate(1204.05 133.12)">online he<tspan class="cls-5" x="110.55" y="0">l</tspan><tspan x="122.88" y="0">p</tspan></text><line class="cls-11" x1="1273.85" y1="175.42" x2="1273.85" y2="218.62"/><polyline class="cls-11" points="1159.73 551.19 1159.73 806.84 1050 806.84"/><line class="cls-11" x1="1050" y1="654.32" x2="1159.73" y2="654.32"/><polyline class="cls-11" points="2009.48 1166.62 2009.48 1401.73 2111.49 1401.73"/><line class="cls-11" x1="2111.49" y1="1244.08" x2="2009.48" y2="1244.08"/><polyline class="cls-11" points="1808.01 387.4 1808.01 476.52 1910.55 476.52"/><polyline class="cls-11" points="1808.01 476.52 1808.01 1103.15 1910.55 1103.15"/><polyline class="cls-11" points="1808.01 1103.15 1808.01 1541.9 1919.28 1541.9"/><text class="cls-13" transform="matrix(1.32, -0.15, 0.11, 0.99, 25.37, 906.27)">ev<tspan class="cls-14" x="60.41" y="0">e</tspan><tspan class="cls-15" x="91.11" y="0">r</tspan><tspan x="122.4" y="0">y t</tspan><tspan class="cls-16" x="197.4" y="0">e</tspan><tspan class="cls-17" x="228.11" y="0">ch </tspan><tspan x="0" y="72">suppo</tspan><tspan class="cls-18" x="163.59" y="72">r</tspan><tspan x="194.24" y="72">t</tspan><tspan x="0" y="144">call</tspan><tspan class="cls-14" x="129.67" y="144">e</tspan><tspan x="160.37" y="144">r ref</tspan><tspan class="cls-16" x="306.09" y="144">e</tspan><tspan x="336.8" y="144">rred </tspan><tspan x="0" y="216">h</tspan><tspan class="cls-14" x="34.92" y="216">e</tspan><tspan x="65.62" y="216">re</tspan></text><text class="cls-13" transform="translate(2262.86 357.91) rotate(-15.1) scale(1.25 1)">Used dai<tspan class="cls-19" x="236.78" y="0">l</tspan><tspan x="266.95" y="0">y </tspan><tspan class="cls-20" x="313.18" y="0">b</tspan><tspan x="345.18" y="0">y </tspan><tspan x="0" y="72">t</tspan><tspan class="cls-21" x="28.77" y="72">e</tspan><tspan x="59.47" y="72">ch suppo</tspan><tspan class="cls-19" x="311.02" y="72">r</tspan><tspan x="341.66" y="72">t</tspan><tspan x="0" y="144">and pro</tspan><tspan class="cls-21" x="222.42" y="144">d</tspan><tspan class="cls-22" x="251.66" y="144">uct </tspan><tspan x="0" y="216">us</tspan><tspan class="cls-21" x="62.93" y="216">e</tspan><tspan x="93.63" y="216">rs</tspan></text><path class="cls-12" d="M2211.86,524.52a138.85,138.85,0,0,0-44.06,8.05,163.81,163.81,0,0,0-39.6,20.83,203.28,203.28,0,0,0-33.3,30A264.91,264.91,0,0,0,2068,619.2c-16,25.34-27.84,53.15-36.14,81.9-2.13,7.18-3.85,14.46-5.54,21.75l-2.28,11-1.89,11.07a371.73,371.73,0,0,0-4.15,44.69l-.13,5.62c0,1.87-.11,3.74-.06,5.61l.15,11.24.57,11.22c.07,1.87.28,3.73.44,5.6l.51,5.59a330.4,330.4,0,0,0,7.47,44.3,303.46,303.46,0,0,0,13.67,42.83,272.57,272.57,0,0,0,20.34,40.11,234.07,234.07,0,0,0,27,35.9,201.4,201.4,0,0,0,33.92,29.42l4.66,3.14c1.55,1,3.21,1.93,4.8,2.91l4.84,2.86,5,2.58,2.5,1.28,1.25.64,1.28.57,5.15,2.26,2.57,1.13,2.63,1,5.27,1.94a148.67,148.67,0,0,0,43.92,8.16,151.88,151.88,0,0,0,44.32-5c1.81-.44,3.57-1.08,5.35-1.6s3.57-1.08,5.33-1.69l5.23-2c1.73-.68,3.5-1.28,5.18-2.09l5.1-2.3c.84-.39,1.7-.75,2.54-1.17l2.47-1.3,4.95-2.59c.84-.42,1.64-.9,2.43-1.38l2.4-1.45a191.41,191.41,0,0,0,35.31-27.31,228.59,228.59,0,0,0,28.75-34.24c16.93-24.63,29.34-52.25,37.58-81a330.55,330.55,0,0,0,9.36-43.81,326.12,326.12,0,0,0,3.36-44.7,332.77,332.77,0,0,0-10.91-88.78c-7.68-28.88-19.48-56.77-35.77-81.88A237,237,0,0,0,2331,596a197.53,197.53,0,0,0-34.4-28.65,167.35,167.35,0,0,0-40.46-19.19,154.43,154.43,0,0,0-44.27-7.18.2.2,0,0,1-.2-.21.21.21,0,0,1,.2-.19c30.19-.33,60.26,8.9,85.82,25.06a201,201,0,0,1,35.19,28.53,232.22,232.22,0,0,1,28.48,35.28c16.69,25.28,28.86,53.41,36.87,82.59.93,3.67,2,7.31,2.81,11l2.42,11.09,2,11.19c.6,3.73,1.06,7.49,1.59,11.24a353.5,353.5,0,0,1,2.66,45.3,331.16,331.16,0,0,1-13,89.64c-8.49,29.06-21.2,57-38.5,81.93a228.12,228.12,0,0,1-29.39,34.64,194.64,194.64,0,0,1-36.15,27.51,161.74,161.74,0,0,1-41.9,17.46,154.41,154.41,0,0,1-45.1,4.6,150.47,150.47,0,0,1-44.4-8.72l-5.31-2-2.64-1-2.59-1.17-5.16-2.33-1.3-.59-1.25-.66-2.51-1.31-5-2.63-4.87-2.9c-1.61-1-3.27-1.89-4.83-2.95l-4.69-3.18a202.91,202.91,0,0,1-34-29.74,246.31,246.31,0,0,1-27.31-36,278.58,278.58,0,0,1-20.69-40.21,305.6,305.6,0,0,1-14.31-42.92,332.75,332.75,0,0,1-8.1-44.54l-.58-5.64c-.18-1.88-.42-3.76-.51-5.64l-.72-11.32-.29-11.33c-.08-1.89,0-3.78,0-5.67l.08-5.67a344.56,344.56,0,0,1,13.82-89.4c8.52-29,20.66-57,36.91-82.57a254.58,254.58,0,0,1,27.59-36,205.17,205.17,0,0,1,34-29.9,160,160,0,0,1,40.37-20.39,136,136,0,0,1,44.5-7.17.2.2,0,0,1,0,.4Z"/><text class="cls-13" transform="matrix(1.25, -0.46, 0.25, 0.97, 13.11, 302.22)">7900 <tspan class="cls-23" x="170.92" y="0">P</tspan><tspan x="208.12" y="0">ageviews</tspan></text><path class="cls-24" d="M374.11,197c85.33-21.56,164-34.23,28,43.77-99.57,57.11-46.45,76.58-10.84,82.91"/><polygon class="cls-12" points="378.22 336.66 386.4 322.8 382.1 307.29 414.97 326.57 378.22 336.66"/><text class="cls-13" transform="translate(1507.42 51.57) rotate(8.96) scale(1.25 1)">4900 <tspan class="cls-25" x="171.27" y="0">p</tspan><tspan x="201.56" y="0">ageviews</tspan></text><text class="cls-13" transform="translate(1138.82 1298.62) rotate(-6.22) scale(1.25 1)">596 <tspan class="cls-25" x="118.83" y="0">p</tspan><tspan x="149.12" y="0">ageviews</tspan></text><path class="cls-26" d="M1655.71,1223.52c91.74-11.57,138.79-91.37,222.28-96"/><path class="cls-12" d="M1870.79,1128l-8.2-14.74.51-.31,23.11,10.25,24.34,6.36-24.76,4.44-23.85,8.41-.48-.27Z"/><path class="cls-26" d="M446.31,830.78c161-7.95,298-354.9,579.86-345.6"/><polygon class="cls-12" points="1014.03 499.39 1021.24 485 1015.88 469.82 1050 486.8 1014.03 499.39"/><path class="cls-26" d="M2092.6,129s196.48,168.23-31.6,286.21"/><polygon class="cls-12" points="2064.52 396.85 2065.38 412.93 2077.55 423.46 2039.5 425.6 2064.52 396.85"/></g></g></svg>