<?xml version="1.0"?>
<svg xmlns="http://www.w3.org/2000/svg" xmlns:xlink="http://www.w3.org/1999/xlink" xmlns:svgjs="http://svgjs.com/svgjs" version="1.1" width="512" height="512" x="0" y="0" viewBox="0 0 128 128" style="enable-background:new 0 0 512 512" xml:space="preserve" class=""><g><g xmlns="http://www.w3.org/2000/svg"><path id="_x31_1" d="m16.95 75.082c0 1.105-.907 2.013-2.013 2.013s-2.013-.907-2.013-2.013v-21.881c0-3.854 1.588-7.369 4.11-9.892 2.551-2.55 6.037-4.109 9.892-4.109h21.626c1.105 0 2.013.878 2.013 1.983s-.907 2.013-2.013 2.013h-21.625c-2.749 0-5.243 1.105-7.058 2.919s-2.919 4.309-2.919 7.086zm10.912 14.71c-1.105 0-1.984-.906-1.984-2.012s.879-1.984 1.984-1.984h19.387c1.105 0 1.984.879 1.984 1.984s-.879 2.012-1.984 2.012zm51.812 0c-1.104 0-2.012-.906-2.012-2.012s.907-1.984 2.012-1.984h25.198c2.75 0 5.3 1.105 7.171 2.92 1.843 1.813 3.005 4.308 3.005 7.058v3.939c0 1.104-.879 2.012-1.984 2.012s-2.013-.907-2.013-2.012v-3.939c0-1.616-.709-3.09-1.814-4.195-1.133-1.105-2.691-1.786-4.364-1.786h-25.199zm20.436 22.25c1.105 0 2.013.879 2.013 1.984s-.907 2.013-2.013 2.013h-6.235c-1.105 0-1.984-.907-1.984-2.013s.879-1.984 1.984-1.984zm-15.135 0c1.105 0 2.013.879 2.013 1.984s-.907 2.013-2.013 2.013h-28.91c-1.105 0-1.984-.907-1.984-2.013s.879-1.984 1.984-1.984zm-4.536-68.847c-1.105 0-2.012-.907-2.012-2.013 0-1.105.906-1.983 2.012-1.983h19.671c1.105 0 2.013.878 2.013 1.983s-.907 2.013-2.013 2.013zm34.609-17.516c0 1.105-.879 1.984-1.984 1.984s-2.013-.879-2.013-1.984v-2.749c0-1.644-.681-3.146-1.758-4.223-1.076-1.105-2.578-1.757-4.223-1.757h-61.449c-1.105 0-1.983-.907-1.983-2.012s.878-2.013 1.983-2.013h61.449c2.75 0 5.243 1.134 7.058 2.947 1.814 1.814 2.92 4.309 2.92 7.058zm-80.894-12.755c1.105 0 2.013.907 2.013 2.013 0 1.105-.907 2.012-2.013 2.012h-6.292c-1.105 0-1.984-.907-1.984-2.012s.879-2.013 1.984-2.013z" fill="#343a40" data-original="#000000" style=""/><path id="_x31_0" d="m8.872 18.055c-.936-.595-1.219-1.843-.624-2.75.596-.935 1.814-1.219 2.75-.624l2.947 1.899 4.28-7.086c.566-.963 1.813-1.247 2.749-.68s1.247 1.786.681 2.749l-5.386 8.872c-.566.907-1.814 1.19-2.749.595z" fill="#343a40" data-original="#000000" style=""/><path id="_x39_" d="m106.97 43.082c-.907-.595-1.19-1.814-.595-2.749.595-.936 1.813-1.191 2.748-.624l2.948 1.898 4.28-7.085c.567-.936 1.785-1.248 2.749-.681.935.567 1.247 1.786.68 2.75l-5.385 8.872c-.595.935-1.814 1.19-2.749.596z" fill="#343a40" data-original="#000000" style=""/><path id="_x38_" d="m8.872 91.124c-.936-.595-1.219-1.813-.624-2.748.596-.907 1.814-1.19 2.75-.596l2.947 1.87 4.28-7.086c.566-.936 1.813-1.247 2.749-.68.936.566 1.247 1.813.681 2.749l-5.386 8.872c-.566.935-1.814 1.19-2.749.623z" fill="#343a40" data-original="#000000" style=""/><path id="_x37_" d="m104.106 98.126h17.885c3.288 0 6.009 2.691 6.009 5.98v17.884c0 3.289-2.721 6.01-6.009 6.01h-17.885c-3.288 0-5.979-2.721-5.979-6.01v-17.884c0-3.289 2.691-5.98 5.979-5.98zm17.885 3.996h-17.885c-1.105 0-1.983.879-1.983 1.984v17.884c0 1.106.878 2.013 1.983 2.013h17.885c1.105 0 2.013-.906 2.013-2.013v-17.884c0-1.105-.907-1.984-2.013-1.984z" fill="#343a40" data-original="#000000" style=""/><path id="_x36_" d="m106.97 116.152c-.907-.567-1.19-1.814-.595-2.75.595-.906 1.813-1.19 2.748-.595l2.948 1.871 4.28-7.058c.567-.964 1.785-1.275 2.749-.681.935.567 1.247 1.786.68 2.722l-5.385 8.871c-.595.936-1.814 1.219-2.749.624z" fill="#343a40" data-original="#000000" style=""/><path id="_x35_" d="m65.645 104.503c.879-.652 2.126-.481 2.778.396.65.907.481 2.154-.426 2.807l-8.589 6.32 8.589 6.349c.907.652 1.076 1.899.426 2.778-.652.906-1.899 1.077-2.778.425l-10.742-7.907c-.142-.114-.313-.284-.426-.454-.68-.879-.481-2.126.397-2.778z" fill="#343a40" data-original="#000000" style=""/><path id="_x34_" d="m70.633 44.244c1.332.454 2.579 1.021 3.77 1.701 1.219.708 2.325 1.502 3.374 2.438l5.3-1.956c.935-.312 1.927.057 2.409.879 0 0 3.4 5.896 3.712 6.434.482.851.284 1.899-.453 2.495l-4.336 3.656c.113.454.17.907.255 1.389.113.935.17 1.842.17 2.721s-.057 1.786-.17 2.721c-.085.454-.142.936-.255 1.39l4.336 3.627c.794.681.936 1.814.368 2.665-1.218 2.098-2.408 4.166-3.627 6.263-.511.879-1.56 1.22-2.467.879l-5.242-1.928c-1.049.907-2.155 1.729-3.374 2.438-1.19.68-2.438 1.247-3.77 1.7l-.964 5.557c-.17.963-1.02 1.643-1.983 1.643h-3.686-3.713c-.992 0-1.842-.766-1.984-1.728l-.964-5.472c-1.303-.453-2.55-1.021-3.741-1.7-1.219-.709-2.352-1.531-3.372-2.438l-5.329 1.928c-.936.369-2.013-.085-2.438-.964-1.219-2.097-2.438-4.194-3.656-6.32-.481-.85-.283-1.898.453-2.522l4.309-3.627c-.085-.454-.17-.936-.227-1.39-.113-.936-.17-1.843-.17-2.721s.057-1.786.17-2.721c.057-.482.142-.935.227-1.389l-4.309-3.628c-.793-.68-.935-1.814-.368-2.665 1.19-2.098 2.409-4.195 3.628-6.292.481-.851 1.559-1.218 2.466-.851l5.244 1.928c1.021-.936 2.153-1.729 3.372-2.438 1.163-.68 2.438-1.247 3.741-1.701l.992-5.555c.171-.964 1.021-1.645 1.956-1.645h3.713 3.686c1.021 0 1.87.737 1.983 1.729zm1.785 5.159c-1.247-.708-2.579-1.276-3.967-1.644-.766-.17-1.39-.794-1.531-1.616l-.907-5.102h-2.013-2.013l-.906 5.102c-.142.737-.681 1.389-1.445 1.587-1.446.396-2.807.964-4.054 1.672-1.275.737-2.409 1.616-3.458 2.636-.51.567-1.36.765-2.125.51l-4.876-1.786c-.68 1.162-1.36 2.324-2.04 3.486l3.996 3.344c.566.482.851 1.276.651 2.041-.198.709-.34 1.446-.425 2.154-.113.709-.142 1.417-.142 2.211 0 .765.028 1.502.142 2.183.085.708.227 1.389.396 2.098.228.736 0 1.586-.623 2.097l-3.968 3.345c.651 1.162 1.332 2.353 2.012 3.515l4.876-1.785c.708-.256 1.53-.086 2.097.453 1.049 1.049 2.211 1.956 3.486 2.693 1.219.708 2.551 1.274 3.969 1.643.765.17 1.389.794 1.53 1.616l.906 5.102h2.014 2.013l.907-5.102c.142-.737.681-1.39 1.446-1.588 1.444-.396 2.805-.963 4.052-1.671 1.248-.737 2.41-1.616 3.431-2.637.538-.567 1.36-.794 2.126-.51l4.902 1.785c.681-1.162 1.333-2.324 2.013-3.515l-3.969-3.345c-.566-.482-.85-1.247-.651-2.012.198-.737.34-1.446.425-2.183.085-.681.142-1.418.142-2.183 0-.793-.057-1.502-.142-2.211-.085-.68-.227-1.388-.396-2.069-.227-.737-.028-1.587.623-2.126l3.969-3.344c-.651-1.162-1.332-2.324-2.013-3.486l-4.902 1.786c-.681.255-1.503.085-2.069-.482-1.051-1.018-2.213-1.925-3.489-2.662zm-8.418 2.664c3.289 0 6.264 1.332 8.446 3.486 2.155 2.154 3.487 5.159 3.487 8.446 0 3.289-1.332 6.264-3.487 8.447-2.183 2.154-5.157 3.486-8.446 3.486-3.287 0-6.292-1.332-8.446-3.486-2.154-2.183-3.486-5.158-3.486-8.447 0-3.288 1.332-6.292 3.486-8.446s5.159-3.486 8.446-3.486zm5.612 6.321c-1.445-1.446-3.429-2.324-5.612-2.324s-4.166.878-5.612 2.324c-1.445 1.446-2.323 3.429-2.323 5.612s.878 4.167 2.323 5.612c1.446 1.445 3.43 2.324 5.612 2.324 2.184 0 4.167-.879 5.612-2.324 1.445-1.444 2.324-3.429 2.324-5.612.001-2.183-.878-4.167-2.324-5.612z" fill="#343a40" data-original="#000000" style=""/><path id="_x33_" d="m6.009 73.098h17.856c3.288 0 6.01 2.693 6.01 5.981v17.885c0 3.287-2.722 5.98-6.01 5.98h-17.856c-3.288 0-6.009-2.693-6.009-5.98v-17.885c0-3.288 2.721-5.981 6.009-5.981zm17.856 3.997h-17.856c-1.105 0-2.012.879-2.012 1.984v17.885c0 1.105.906 1.984 2.012 1.984h17.856c1.105 0 2.013-.879 2.013-1.984v-17.885c0-1.105-.907-1.984-2.013-1.984z" fill="#343a40" data-original="#000000" style=""/><path id="_x32_" d="m104.106 25.027h17.885c3.288 0 6.009 2.721 6.009 6.008v17.885c0 3.288-2.721 5.98-6.009 5.98h-17.885c-3.288 0-5.979-2.693-5.979-5.98v-17.884c0-3.288 2.691-6.009 5.979-6.009zm17.885 3.996h-17.885c-1.105 0-1.983.907-1.983 2.012v17.885c0 1.105.878 1.984 1.983 1.984h17.885c1.105 0 2.013-.879 2.013-1.984v-17.884c0-1.105-.907-2.013-2.013-2.013z" fill="#343a40" data-original="#000000" style=""/><path id="_x31_" d="m6.009 0h17.856c3.288 0 6.01 2.721 6.01 6.008v17.857c0 3.288-2.722 6.009-6.01 6.009h-17.856c-3.288 0-6.009-2.721-6.009-6.009v-17.857c0-3.287 2.721-6.008 6.009-6.008zm17.856 3.996h-17.856c-1.105 0-2.012.907-2.012 2.012v17.857c0 1.105.906 2.012 2.012 2.012h17.856c1.105 0 2.013-.906 2.013-2.012v-17.857c0-1.105-.907-2.012-2.013-2.012z" fill="#343a40" data-original="#000000" style=""/></g></g></svg>
