<?xml version="1.0"?>
<svg xmlns="http://www.w3.org/2000/svg" xmlns:xlink="http://www.w3.org/1999/xlink" xmlns:svgjs="http://svgjs.com/svgjs" version="1.1" width="512" height="512" x="0" y="0" viewBox="0 0 510.185 510.185" style="enable-background:new 0 0 512 512" xml:space="preserve" class=""><g><g xmlns="http://www.w3.org/2000/svg"><path d="m128.068 222.256c.461-4.116-2.502-7.827-6.618-8.288-22.939-2.568-42.776-14.341-56.055-31.385 2.83-17.262 12.248-32.467 26.383-42.737 10.519 8.958 24.136 14.383 39.003 14.383 14.868 0 28.485-5.425 39.005-14.384 2.035 1.486 4 3.076 5.857 4.785 1.441 1.326 3.261 1.981 5.076 1.981 2.024 0 4.043-.815 5.521-2.422 2.805-3.048 2.606-7.793-.441-10.597-1.866-1.717-3.819-3.341-5.836-4.875 6.96-9.825 11.068-21.806 11.068-34.736 0-8.688-1.863-16.944-5.187-24.412 14.959 13.264 25.105 31.923 27.354 53.235.436 4.119 4.121 7.109 8.246 6.671 4.119-.435 7.106-4.126 6.672-8.246-5.256-49.801-46.975-87.371-97.091-87.493-.082 0-.162-.006-.243-.006-.013 0-.026.001-.039.001-53.955.021-97.843 43.922-97.843 97.881 0 49.904 37.351 91.718 86.881 97.263.284.032.565.047.844.047 3.768 0 7.015-2.833 7.443-6.666zm47.962-128.277c0 24.95-20.299 45.249-45.249 45.249s-45.249-20.299-45.249-45.249c0-24.168 19.045-43.971 42.915-45.19.778-.022 2.494-.054 2.575-.054 24.84.132 45.008 20.374 45.008 45.244zm-100.436-24.136c-3.247 7.395-5.062 15.555-5.062 24.136 0 12.927 4.106 24.905 11.062 34.729-12.281 9.305-21.523 21.72-26.868 35.913-4.395-10.142-6.828-21.311-6.828-33.009.001-24.522 10.715-46.581 27.696-61.769z" fill="#343a40" data-original="#000000" style="" class=""/><path d="m286.685 129.475c4.128.44 7.811-2.553 8.246-6.671 2.249-21.313 12.395-39.972 27.354-53.236-3.324 7.468-5.187 15.724-5.187 24.411 0 12.93 4.108 24.911 11.068 34.736-2.018 1.534-3.971 3.159-5.837 4.877-3.049 2.805-3.245 7.55-.44 10.598 1.479 1.607 3.496 2.421 5.521 2.421 1.815 0 3.636-.655 5.076-1.981 1.857-1.709 3.822-3.3 5.858-4.786 10.519 8.959 24.137 14.384 39.005 14.384 14.568 0 28.321-5.283 39.017-14.373 14.127 10.27 23.541 25.471 26.369 42.728-13.279 17.045-33.117 28.817-56.057 31.385-4.116.461-7.08 4.171-6.619 8.288.429 3.833 3.675 6.667 7.444 6.667.278 0 .56-.015.843-.047 49.532-5.544 86.885-47.358 86.885-97.263 0-53.972-43.909-97.882-97.882-97.882-50.225 0-92.069 37.617-97.334 87.5-.437 4.117 2.55 7.809 6.67 8.244zm173.544 2.137c0 11.699-2.433 22.868-6.828 33.011-5.34-14.187-14.582-26.593-26.853-35.897 2.253-3.186 4.222-6.613 5.848-10.262 1.685-3.784-.017-8.217-3.8-9.902-3.783-1.686-8.217.015-9.903 3.8-7.27 16.321-23.498 26.868-41.346 26.868-24.95 0-45.249-20.299-45.249-45.249s20.299-45.249 45.249-45.249c.724 0 1.44.036 2.159.055 20.526.982 38.078 15.881 42.185 36.153.823 4.059 4.774 6.688 8.84 5.861 4.06-.822 6.684-4.78 5.861-8.84-.855-4.222-2.155-8.264-3.832-12.093 16.967 15.186 27.669 37.235 27.669 61.744z" fill="#343a40" data-original="#000000" style="" class=""/><path d="m221.39 381.831c-4.116-.518-7.858 2.401-8.373 6.512-.996 7.97-3.126 15.556-6.197 22.619-5.34-14.187-14.567-26.598-26.836-35.903.558-.791 1.105-1.593 1.629-2.415 2.226-3.494 1.198-8.13-2.295-10.355-3.492-2.226-8.13-1.199-10.355 2.295-8.371 13.138-22.645 20.982-38.182 20.982-24.95 0-45.249-20.299-45.249-45.249 0-21.463 15.244-40.115 36.247-44.352 4.06-.819 6.688-4.774 5.868-8.835-.03-.148-.073-.29-.111-.434-.764-3.783-4.313-6.411-8.214-5.957-49.27 5.75-86.424 47.542-86.424 97.21 0 53.972 43.909 97.882 97.882 97.882 49.266 0 91.018-36.812 97.12-85.628.515-4.11-2.401-7.858-6.51-8.372zm-145.698-65.816c-3.318 7.487-5.16 15.723-5.16 24.302 0 12.921 4.102 24.895 11.053 34.716-12.264 9.293-21.492 21.694-26.838 35.864-4.396-10.105-6.848-21.243-6.848-32.947 0-24.476 10.666-46.678 27.793-61.935zm55.089 144.816c-26.542 0-50.192-12.556-65.372-32.023 2.851-17.216 12.263-32.378 26.367-42.626 10.519 8.959 24.137 14.384 39.005 14.384 14.572 0 28.302-5.184 39.043-14.354 14.098 10.26 23.499 25.432 26.336 42.656-15.27 19.544-39.052 31.963-65.379 31.963z" fill="#343a40" data-original="#000000" style="" class=""/><path d="m388.802 280.738c-3.887-.454-7.447 2.174-8.213 5.957-.038.145-.081.287-.111.435-.819 4.06 1.809 8.016 5.869 8.834 21.004 4.235 36.249 22.888 36.249 44.352 0 24.95-20.299 45.249-45.249 45.249-15.538 0-29.812-7.844-38.183-20.983-2.226-3.494-6.861-4.521-10.355-2.295-3.493 2.226-4.521 6.862-2.295 10.355.531.833 1.084 1.644 1.65 2.445-12.268 9.299-21.519 21.682-26.863 35.858-3.067-7.059-5.194-14.639-6.189-22.603-.514-4.111-4.257-7.026-8.373-6.512-4.109.514-7.025 4.262-6.512 8.372 6.103 48.816 47.854 85.629 97.12 85.629 53.973 0 97.882-43.91 97.882-97.882 0-49.669-37.156-91.461-86.427-97.211zm-11.455 180.093c-26.326 0-50.108-12.419-65.378-31.962 2.836-17.225 12.237-32.398 26.335-42.657 10.74 9.17 24.471 14.354 39.043 14.354 14.867 0 28.484-5.424 39.003-14.383 14.105 10.249 23.516 25.411 26.366 42.628-15.18 19.466-38.829 32.02-65.369 32.02zm76.019-49.902c-5.344-14.179-14.558-26.593-26.827-35.891 6.953-9.822 11.057-21.798 11.057-34.72 0-8.579-1.842-16.815-5.16-24.302 17.127 15.257 27.793 37.459 27.793 61.935 0 11.715-2.458 22.864-6.863 32.978z" fill="#343a40" data-original="#000000" style="" class=""/><path d="m500.448 280.371c3.05 0 5.864-1.388 7.721-3.808s2.468-5.497 1.679-8.439l-3.337-12.456 3.336-12.453c.79-2.945.179-6.022-1.678-8.442s-4.671-3.808-7.721-3.808h-31.56c-2.494 0-4.832.669-6.858 1.823 28.344-24.111 46.097-60.024 46.097-99.704 0-72.113-58.668-130.781-130.781-130.781-55.703 0-103.817 34.788-122.493 84.802-18.447-50.469-66.79-85.652-122.808-85.652-72.113.001-130.781 58.669-130.781 130.782 0 55.298 34.474 103.284 84.055 122.194-50.259 18.573-85.319 66.907-85.319 122.67 0 72.113 58.668 130.781 130.781 130.781 32.115 0 63.128-11.712 87.325-32.98 16.196-14.235 28.477-31.97 35.977-51.583 7.508 19.767 19.821 37.679 36.061 52.086 24.226 21.492 55.195 33.328 87.203 33.328 72.113 0 130.781-58.668 130.781-130.781 0-39.262-17.382-74.841-45.209-98.944 1.812.866 3.831 1.365 5.97 1.365zm-30.468-34.406h23.601l-1.923 7.18c-.443 1.651-.443 3.396-.002 5.041l1.925 7.186h-23.601zm-15-1.091v3.294h-15.41c6.651-3.597 12.946-7.747 18.822-12.392-2.119 2.442-3.412 5.619-3.412 9.098zm38.148 133.076c0 63.842-51.939 115.781-115.781 115.781-28.336 0-55.771-10.494-77.249-29.549-21.3-18.896-34.979-44.558-38.52-72.261l-.04-.312c-.48-3.743-3.667-6.545-7.439-6.545-.004 0-.008 0-.012 0-3.777.006-6.961 2.82-7.431 6.569-3.464 27.681-17.12 53.252-38.452 72.001-21.458 18.86-48.954 29.247-77.423 29.247-63.842-.001-115.781-51.94-115.781-115.782 0-58.688 43.855-108.085 102.035-114.963.188.014.377.033.564.033 3.752 0 6.993-2.812 7.439-6.63.48-4.114-2.465-7.839-6.579-8.319-58.261-6.808-102.195-56.24-102.195-114.985 0-63.842 51.939-115.781 115.781-115.781 59.115 0 108.583 44.243 115.065 102.914.07.631.224 1.231.436 1.801.726 2.976 3.235 5.324 6.456 5.68 4.139.458 7.823-2.514 8.279-6.631 6.482-58.67 55.95-102.914 115.065-102.914 63.842 0 115.781 51.939 115.781 115.781 0 58.747-43.936 108.179-102.198 114.984-.159.019-.313.051-.469.079-.045.008-.091.011-.136.02h-21.254c-3.878-60.07-53.974-107.758-115.007-107.758-63.554 0-115.258 51.705-115.258 115.258 0 42.021 22.892 80.73 59.74 101.022 3.629 1.999 8.189.677 10.188-2.952 1.998-3.628.677-8.189-2.951-10.188-32.061-17.654-51.977-51.329-51.977-87.883 0-55.282 44.976-100.258 100.258-100.258 52.76 0 96.129 40.965 99.978 92.758h-21.724c-3.79-39.845-37.432-71.12-78.254-71.12-20.105 0-39.246 7.602-53.896 21.406-3.015 2.841-3.155 7.587-.314 10.602 2.842 3.016 7.589 3.154 10.602.315 11.854-11.171 27.342-17.323 43.608-17.323 32.541 0 59.438 24.564 63.163 56.12h-24.621c-3.511-18.076-19.454-31.768-38.542-31.768-21.652 0-39.268 17.616-39.268 39.268s17.615 39.268 39.268 39.268c19.087 0 35.03-13.692 38.542-31.768h24.621c-3.725 31.556-30.622 56.12-63.163 56.12-35.08 0-63.62-28.54-63.62-63.62 0-7.735 1.385-15.312 4.114-22.521 1.467-3.874-.483-8.203-4.357-9.67-3.871-1.468-8.203.484-9.67 4.357-3.375 8.912-5.087 18.276-5.087 27.833 0 43.351 35.269 78.62 78.62 78.62 40.821 0 74.464-31.275 78.254-71.12h21.724c-3.849 51.793-47.218 92.758-99.978 92.758-6.831 0-13.657-.691-20.289-2.054-4.055-.829-8.021 1.779-8.856 5.837-.834 4.057 1.779 8.022 5.837 8.856 7.623 1.566 15.466 2.361 23.309 2.361 61.033 0 111.129-47.688 115.007-107.758h23.483c57.452 7.526 100.574 56.586 100.574 114.784zm-225.146-129.782c-.021-2.076-.891-4.134-2.585-5.6-3.131-2.71-7.868-2.368-10.579.764l-6.428 7.428c-2.573 2.974-2.412 7.43.368 10.211l7.378 7.378c1.465 1.464 3.385 2.197 5.304 2.197s3.839-.732 5.304-2.197c1.433-1.433 2.16-3.303 2.191-5.181h8.205c-3.167 9.721-12.312 16.768-23.077 16.768-13.381 0-24.268-10.887-24.268-24.268s10.887-24.268 24.268-24.268c10.765 0 19.909 7.047 23.077 16.768zm172.143 15h14.855v3.294c0 3.11 1.038 5.975 2.769 8.293-5.527-4.313-11.418-8.191-17.624-11.587z" fill="#343a40" data-original="#000000" style="" class=""/></g></g></svg>
